<svg width="688" height="591" viewBox="0 0 688 591" fill="none" xmlns="http://www.w3.org/2000/svg">
<path d="M567.999 439.691L335 573" stroke="white" stroke-width="25" stroke-miterlimit="1"/>
<path d="M334.999 39.7634L567.999 173.072" stroke="white" stroke-width="25" stroke-miterlimit="1"/>
<path d="M102 173.072L335 39.7634" stroke="white" stroke-width="25" stroke-miterlimit="1"/>
<path d="M335 580L102 442V166L335 304V580Z" stroke="white" stroke-width="25" stroke-miterlimit="1"/>
<path d="M335 573L568 437.333V166L335 301.667V573Z" stroke="white" stroke-width="25" stroke-miterlimit="1"/>
<path d="M568 173.5L335 39.5L102 173.5L335 307L568 173.5Z" stroke="white" stroke-width="25" stroke-miterlimit="1"/>
<ellipse cx="335.499" cy="303" rx="44.5" ry="43" fill="white"/>
<path fill-rule="evenodd" clip-rule="evenodd" d="M331.542 33.604L307.142 47.1396C307.02 51.65 308.029 56.1475 310.306 60.2509C317.807 73.7734 336.221 77.8942 351.434 69.4549C357.991 65.8174 362.883 60.4401 365.727 54.4158L331.542 33.604Z" fill="white"/>
<path fill-rule="evenodd" clip-rule="evenodd" d="M99.9743 449.065L124.099 463.085C128.035 460.879 131.38 457.708 133.738 453.651C141.508 440.281 135.614 422.356 120.572 413.614C114.089 409.847 106.965 408.4 100.334 409.044L99.9743 449.065Z" fill="white"/>
<path fill-rule="evenodd" clip-rule="evenodd" d="M570 442.496V414.594C566.115 412.299 561.692 411 557 411C541.536 411 529 425.103 529 442.5C529 449.998 531.328 456.885 535.217 462.294L570 442.496Z" fill="white"/>
<path fill-rule="evenodd" clip-rule="evenodd" d="M428.171 430.88C606.513 323.633 709.787 168.012 658.84 83.2909C621.893 21.8527 513.99 14.5717 389.459 56.1103L416.224 71.2908C506.654 47.2724 580.541 55.0466 606.735 98.6046C648.148 167.471 554.662 299.705 397.927 393.959C241.192 488.212 80.5618 508.792 39.1487 439.926C15.167 400.047 36.4224 338.917 89.001 276.219V247.609C12.3873 330.372 -20.3453 416.21 13.0045 471.668C63.952 556.389 249.828 538.128 428.171 430.88Z" fill="url(#paint0_linear_2539_95)"/>
<path fill-rule="evenodd" clip-rule="evenodd" d="M638.848 449.624C659.181 412.446 640.196 355.322 593.687 295.045L608.437 277.516C676.056 357.771 705.163 437.981 676.897 489.664C630.991 573.601 451.144 550.515 275.197 438.098C264.379 431.187 253.829 424.099 243.563 416.862C256.293 407.841 264.851 393.587 265.893 377.351C274.167 383.096 282.641 388.744 291.301 394.278C445.931 493.074 601.533 517.853 638.848 449.624ZM196.571 323.013C100.5 237.806 49.9878 144.688 78.8842 91.8523C103.733 46.4169 181.037 42.2268 275.578 73.6735L296.779 61.4809C175.86 17.1533 72.8821 21.9624 39.7358 82.5692C4.79531 146.457 57.5214 253.932 162.287 351.2C168.961 337.599 181.422 327.2 196.571 323.013ZM509.346 208.221L529.504 198.998C528.697 198.314 527.888 197.63 527.076 196.948L508.56 207.556C508.823 207.778 509.084 207.999 509.346 208.221Z" fill="url(#paint1_linear_2539_95)"/>
<ellipse cx="597.5" cy="69" rx="69.5" ry="69" fill="white"/>
<path fill-rule="evenodd" clip-rule="evenodd" d="M211.5 443C249.884 443 281 412.108 281 374C281 335.892 249.884 305 211.5 305C173.116 305 142 335.892 142 374C142 412.108 173.116 443 211.5 443ZM212 419C236.853 419 257 398.853 257 374C257 349.147 236.853 329 212 329C187.147 329 167 349.147 167 374C167 398.853 187.147 419 212 419Z" fill="white"/>
<defs>
<linearGradient id="paint0_linear_2539_95" x1="293.754" y1="524.959" x2="239.85" y2="45.5434" gradientUnits="userSpaceOnUse">
<stop offset="0.16" stop-color="#E1E0E0"/>
<stop offset="0.35" stop-color="#E3E2E2"/>
<stop offset="0.69" stop-color="white"/>
</linearGradient>
<linearGradient id="paint1_linear_2539_95" x1="687.642" y1="344.873" x2="48.9737" y2="413.454" gradientUnits="userSpaceOnUse">
<stop offset="0.16" stop-color="#E1E0E0"/>
<stop offset="0.34" stop-color="#E3E2E2"/>
<stop offset="0.69" stop-color="white"/>
</linearGradient>
</defs>
</svg>
